<svg width="102" height="32" style="display: block"><path d="M29.3864 22.7101C29.2429 22.3073 29.0752 21.9176 28.9157 21.5565C28.6701 21.0011 28.4129 20.4446 28.1641 19.9067L28.1444 19.864C25.9255 15.0589 23.5439 10.1881 21.0659 5.38701L20.9607 5.18316C20.7079 4.69289 20.4466 4.18596 20.1784 3.68786C19.8604 3.0575 19.4745 2.4636 19.0276 1.91668C18.5245 1.31651 17.8956 0.833822 17.1853 0.502654C16.475 0.171486 15.7005 -9.83959e-05 14.9165 4.23317e-08C14.1325 9.84805e-05 13.3581 0.171877 12.6478 0.503224C11.9376 0.834571 11.3088 1.31742 10.8059 1.91771C10.3595 2.46476 9.97383 3.05853 9.65572 3.68858C9.38521 4.19115 9.12145 4.70278 8.8664 5.19757L8.76872 5.38696C6.29061 10.1884 3.90903 15.0592 1.69015 19.8639L1.65782 19.9338C1.41334 20.463 1.16057 21.0102 0.919073 21.5563C0.75949 21.9171 0.592009 22.3065 0.448355 22.7103C0.0369063 23.8104 -0.094204 24.9953 0.0668098 26.1585C0.237562 27.334 0.713008 28.4447 1.44606 29.3804C2.17911 30.3161 3.14434 31.0444 4.24614 31.4932C5.07835 31.8299 5.96818 32.002 6.86616 32C7.14824 31.9999 7.43008 31.9835 7.71027 31.9509C8.846 31.8062 9.94136 31.4366 10.9321 30.8639C12.2317 30.1338 13.5152 29.0638 14.9173 27.5348C16.3194 29.0638 17.6029 30.1338 18.9025 30.8639C19.8932 31.4367 20.9886 31.8062 22.1243 31.9509C22.4045 31.9835 22.6864 31.9999 22.9685 32C23.8664 32.002 24.7561 31.8299 25.5883 31.4932C26.6901 31.0444 27.6554 30.3161 28.3885 29.3804C29.1216 28.4447 29.5971 27.3341 29.7679 26.1585C29.9287 24.9952 29.7976 23.8103 29.3864 22.7101ZM14.9173 24.377C13.1816 22.1769 12.0678 20.1338 11.677 18.421C11.5169 17.7792 11.4791 17.1131 11.5656 16.4573C11.6339 15.9766 11.8105 15.5176 12.0821 15.1148C12.4163 14.6814 12.8458 14.3304 13.3374 14.0889C13.829 13.8475 14.3696 13.7219 14.9175 13.7219C15.4655 13.722 16.006 13.8476 16.4976 14.0892C16.9892 14.3307 17.4186 14.6817 17.7528 15.1151C18.0244 15.5181 18.201 15.9771 18.2693 16.4579C18.3556 17.114 18.3177 17.7803 18.1573 18.4223C17.7661 20.1349 16.6526 22.1774 14.9173 24.377ZM27.7406 25.8689C27.6212 26.6908 27.2887 27.4674 26.7762 28.1216C26.2636 28.7759 25.5887 29.2852 24.8183 29.599C24.0393 29.9111 23.1939 30.0217 22.3607 29.9205C21.4946 29.8089 20.6599 29.5239 19.9069 29.0824C18.7501 28.4325 17.5791 27.4348 16.2614 25.9712C18.3591 23.3846 19.669 21.0005 20.154 18.877C20.3723 17.984 20.4196 17.0579 20.2935 16.1475C20.1791 15.3632 19.8879 14.615 19.4419 13.9593C18.9194 13.2519 18.2378 12.6768 17.452 12.2805C16.6661 11.8842 15.798 11.6777 14.9175 11.6777C14.0371 11.6777 13.1689 11.8841 12.383 12.2803C11.5971 12.6765 10.9155 13.2515 10.393 13.9589C9.94707 14.6144 9.65591 15.3624 9.5414 16.1465C9.41524 17.0566 9.4623 17.9822 9.68011 18.8749C10.1648 20.9993 11.4748 23.384 13.5732 25.9714C12.2555 27.4348 11.0845 28.4325 9.92769 29.0825C9.17468 29.5239 8.34007 29.809 7.47395 29.9205C6.64065 30.0217 5.79525 29.9111 5.0162 29.599C4.24581 29.2852 3.57092 28.7759 3.05838 28.1217C2.54585 27.4674 2.21345 26.6908 2.09411 25.8689C1.97932 25.0334 2.07701 24.1825 2.37818 23.3946C2.49266 23.0728 2.62663 22.757 2.7926 22.3818C3.0274 21.851 3.27657 21.3115 3.51759 20.7898L3.54996 20.7197C5.75643 15.9419 8.12481 11.0982 10.5894 6.32294L10.6875 6.13283C10.9384 5.64601 11.1979 5.14267 11.4597 4.6563C11.7101 4.15501 12.0132 3.68171 12.3639 3.2444C12.6746 2.86903 13.0646 2.56681 13.5059 2.35934C13.9473 2.15186 14.4291 2.04426 14.9169 2.04422C15.4047 2.04418 15.8866 2.15171 16.3279 2.35911C16.7693 2.56651 17.1593 2.86867 17.4701 3.24399C17.821 3.68097 18.1242 4.15411 18.3744 4.65538C18.6338 5.13742 18.891 5.63623 19.1398 6.11858L19.2452 6.32315C21.7097 11.0979 24.078 15.9415 26.2847 20.7201L26.3046 20.7631C26.5498 21.2936 26.8033 21.8419 27.042 22.382C27.2082 22.7577 27.3424 23.0738 27.4566 23.3944C27.7576 24.1824 27.8553 25.0333 27.7406 25.8689Z" fill="currentcolor"></path><path d="M41.6847 24.1196C40.8856 24.1196 40.1505 23.9594 39.4792 23.6391C38.808 23.3188 38.2327 22.8703 37.7212 22.2937C37.2098 21.7171 36.8263 21.0445 36.5386 20.3078C36.2509 19.571 36.123 18.7804 36.123 17.9361C36.123 17.0918 36.2829 16.3012 36.5705 15.5645C36.8582 14.8277 37.2737 14.1551 37.7852 13.5785C38.2966 13.0019 38.9039 12.5535 39.5752 12.2332C40.2464 11.9129 40.9815 11.7527 41.7806 11.7527C42.5797 11.7527 43.3148 11.9129 43.9861 12.2332C44.6573 12.5535 45.2326 13.0019 45.744 13.5785C46.2555 14.1551 46.639 14.8277 46.9267 15.5645C47.2144 16.3012 47.3423 17.0918 47.3423 17.9361C47.3423 18.7804 47.1824 19.571 46.8947 20.3078C46.607 21.0445 46.1915 21.7171 45.6801 22.2937C45.1686 22.8703 44.5613 23.3188 43.8901 23.6391C43.2188 23.9594 42.4837 24.1196 41.6847 24.1196ZM41.7806 21.8515C42.2241 21.8515 42.6357 21.7554 43.0152 21.5632C43.3947 21.371 43.7102 21.1149 43.9619 20.7948C44.2136 20.4747 44.4214 20.1087 44.5694 19.6968C44.7173 19.285 44.8173 18.8492 44.8173 18.3894C44.8173 17.9297 44.7173 17.4939 44.5694 17.082C44.4214 16.6702 44.2136 16.3042 43.9619 15.9841C43.7102 15.664 43.3947 15.4079 43.0152 15.2157C42.6357 15.0235 42.2241 14.9274 41.7806 14.9274C41.337 14.9274 40.9254 15.0235 40.5459 15.2157C40.1664 15.4079 39.8509 15.664 39.5992 15.9841C39.3475 16.3042 39.1397 16.6702 38.9918 17.082C38.8439 17.4939 38.7439 17.9297 38.7439 18.3894C38.7439 18.8492 38.8439 19.285 38.9918 19.6968C39.1397 20.1087 39.3475 20.4747 39.5992 20.7948C39.8509 21.1149 40.1664 21.371 40.5459 21.5632C40.9254 21.7554 41.337 21.8515 41.7806 21.8515ZM53.0487 24.1196C52.2496 24.1196 51.5145 23.9594 50.8432 23.6391C50.172 23.3188 49.5967 22.8703 49.0853 22.2937C48.5738 21.7171 48.1903 21.0445 47.9026 20.3078C47.6149 19.571 47.487 18.7804 47.487 17.9361C47.487 17.0918 47.6486 16.3012 47.9363 15.5645C48.224 14.8277 48.6395 14.1551 49.1509 13.5785C49.6624 13.0019 50.2697 12.5535 50.9409 12.2332C51.6122 11.9129 52.3473 11.7527 53.1463 11.7527C53.9454 11.7527 54.6805 11.9129 55.3518 12.2332C56.023 12.5535 56.5983 13.0019 57.1098 13.5785C57.6212 14.1551 58.0047 14.8277 58.2924 15.5645C58.5801 16.3012 58.7079 17.0918 58.7079 17.9361C58.7079 18.7804 58.5481 19.571 58.2604 20.3078C57.9727 21.0445 57.5572 21.7171 57.0457 22.2937C56.5343 22.8703 55.927 23.3188 55.2557 23.6391C54.5845 23.9594 53.8494 24.1196 53.0487 24.1196ZM53.1463 21.8515C53.5899 21.8515 54.0015 21.7554 54.381 21.5632C54.7605 21.371 55.076 21.1149 55.3277 20.7948C55.5794 20.4747 55.7872 20.1087 55.9351 19.6968C56.083 19.285 56.183 18.8492 56.183 18.3894C56.183 17.9297 56.083 17.4939 55.9351 17.082C55.7872 16.6702 55.5794 16.3042 55.3277 15.9841C55.076 15.664 54.7605 15.4079 54.381 15.2157C54.0015 15.0235 53.5899 14.9274 53.1463 14.9274C52.7028 14.9274 52.2912 15.0235 51.9117 15.2157C51.5322 15.4079 51.2167 15.664 50.965 15.9841C50.7133 16.3042 50.5055 16.6702 50.3576 17.082C50.2097 17.4939 50.1097 17.9297 50.1097 18.3894C50.1097 18.8492 50.2097 19.285 50.3576 19.6968C50.5055 20.1087 50.7133 20.4747 50.965 20.7948C51.2167 21.1149 51.5322 21.371 51.9117 21.5632C52.2912 21.7554 52.7028 21.8515 53.1463 21.8515ZM66.0834 24.1196C64.9825 24.1196 64.0794 23.7755 63.3742 23.0873C62.6689 22.3991 62.3163 21.4377 62.3163 20.2031V15.2454H60.0099C59.6744 15.2454 59.4147 15.1732 59.2308 15.0289C59.0468 14.8845 58.9549 14.6683 58.9549 14.3802C58.9549 14.0921 59.0468 13.8759 59.2308 13.7315C59.4147 13.5872 59.6744 13.515 60.0099 13.515H62.3163V10.9677C62.3163 10.6476 62.4202 10.3994 62.628 10.2231C62.8358 10.0468 63.1154 9.95866 63.4669 9.95866C63.8184 9.95866 64.098 10.0468 64.3058 10.2231C64.5136 10.3994 64.6175 10.6476 64.6175 10.9677V13.515H68.1675C68.503 13.515 68.7627 13.5872 68.9466 13.7315C69.1306 13.8759 69.2225 14.0921 69.2225 14.3802C69.2225 14.6683 69.1306 14.8845 68.9466 15.0289C68.7627 15.1732 68.503 15.2454 68.1675 15.2454H64.6175V20.0148C64.6175 20.6873 64.7775 21.1839 65.0972 21.5041C65.417 21.8242 65.8845 21.9843 66.4999 21.9843C66.7516 21.9843 67.0153 21.9443 67.2911 21.8641C67.5669 21.784 67.8067 21.7439 68.0104 21.7439C68.2622 21.7439 68.462 21.8161 68.61 21.9604C68.7579 22.1048 68.8318 22.3131 68.8318 22.5853C68.8318 22.8575 68.714 23.0873 68.4782 23.2717C68.2424 23.456 67.9267 23.6004 67.5311 23.7047C67.1356 23.809 66.7041 23.8812 66.2367 23.9213C65.7693 23.9614 65.3897 23.9815 64.9981 23.9815L66.0834 24.1196ZM75.3813 24.1196C74.5822 24.1196 73.8471 23.9594 73.1758 23.6391C72.5046 23.3188 71.9293 22.8703 71.4178 22.2937C70.9064 21.7171 70.5229 21.0445 70.2352 20.3078C69.9475 19.571 69.8213 18.7804 69.8213 17.9361C69.8213 17.0918 69.9812 16.3012 70.2689 15.5645C70.5566 14.8277 70.9721 14.1551 71.4835 13.5785C71.995 13.0019 72.6023 12.5535 73.2735 12.2332C73.9448 11.9129 74.6799 11.7527 75.4789 11.7527C76.278 11.7527 77.0131 11.9129 77.6844 12.2332C78.3556 12.5535 78.9309 13.0019 79.4424 13.5785C79.9538 14.1551 80.3373 14.8277 80.625 15.5645C80.9127 16.3012 81.0405 17.0918 81.0405 17.9361C81.0405 18.7804 80.8807 19.571 80.593 20.3078C80.3053 21.0445 79.8898 21.7171 79.3783 22.2937C78.8669 22.8703 78.2596 23.3188 77.5883 23.6391C76.9171 23.9594 76.182 24.1196 75.3813 24.1196ZM75.4789 21.8515C75.9225 21.8515 76.3341 21.7554 76.7136 21.5632C77.0931 21.371 77.4086 21.1149 77.6603 20.7948C77.912 20.4747 78.1198 20.1087 78.2677 19.6968C78.4156 19.285 78.5156 18.8492 78.5156 18.3894C78.5156 17.9297 78.4156 17.4939 78.2677 17.082C78.1198 16.6702 77.912 16.3042 77.6603 15.9841C77.4086 15.664 77.0931 15.4079 76.7136 15.2157C76.3341 15.0235 75.9225 14.9274 75.4789 14.9274C75.0354 14.9274 74.6238 15.0235 74.2443 15.2157C73.8648 15.4079 73.5493 15.664 73.2976 15.9841C73.0459 16.3042 72.8381 16.6702 72.6902 17.082C72.5423 17.4939 72.4423 17.9297 72.4423 18.3894C72.4423 18.8492 72.5423 19.285 72.6902 19.6968C72.8381 20.1087 73.0459 20.4747 73.2976 20.7948C73.5493 21.1149 73.8648 21.371 74.2443 21.5632C74.6238 21.7554 75.0354 21.8515 75.4789 21.8515ZM84.0768 23.8831C83.7254 23.8831 83.4457 23.7955 83.2379 23.6204C83.0301 23.4452 82.9262 23.1972 82.9262 22.8771V13.0151C82.9262 12.695 83.0301 12.4469 83.2379 12.2706C83.4457 12.0943 83.7254 12.0062 84.0768 12.0062C84.4283 12.0062 84.7079 12.0943 84.9157 12.2706C85.1235 12.4469 85.2274 12.695 85.2274 13.0151V13.7717C85.5469 13.1952 85.9943 12.7347 86.5697 12.3905C87.1451 12.0462 87.8403 11.8741 88.6554 11.8741C89.4385 11.8741 90.1337 12.0502 90.7411 12.4024C91.3484 12.7547 91.8239 13.255 92.1674 13.9036C92.5109 14.5522 92.6827 15.3087 92.6827 16.1731V22.8771C92.6827 23.1972 92.5788 23.4452 92.371 23.6204C92.1632 23.7955 91.8835 23.8831 91.5321 23.8831C91.1806 23.8831 90.901 23.7955 90.6932 23.6204C90.4854 23.4452 90.3815 23.1972 90.3815 22.8771V16.3614C90.3815 15.5211 90.1776 14.8807 89.7701 14.4402C89.3626 13.9998 88.7992 13.7796 88.0779 13.7796C87.3406 13.7796 86.7492 14.0158 86.3037 14.4883C85.8583 14.9608 85.6355 15.6211 85.6355 16.4695V22.8771C85.6355 23.1972 85.5316 23.4452 85.3238 23.6204C85.116 23.7955 84.8363 23.8831 84.4849 23.8831H84.0768ZM96.2178 23.8831C95.8663 23.8831 95.5867 23.7955 95.3789 23.6204C95.1711 23.4452 95.0672 23.1972 95.0672 22.8771V13.0151C95.0672 12.695 95.1711 12.4469 95.3789 12.2706C95.5867 12.0943 95.8663 12.0062 96.2178 12.0062C96.5692 12.0062 96.8489 12.0943 97.0567 12.2706C97.2645 12.4469 97.3684 12.695 97.3684 13.0151V13.7717C97.6879 13.1952 98.1353 12.7347 98.7106 12.3905C99.286 12.0462 99.9812 11.8741 100.796 11.8741C101.58 11.8741 102.275 12.0502 102.882 12.4024C103.489 12.7547 103.965 13.255 104.308 13.9036C104.652 14.5522 104.824 15.3087 104.824 16.1731V22.8771C104.824 23.1972 104.72 23.4452 104.512 23.6204C104.304 23.7955 104.024 23.8831 103.673 23.8831C103.322 23.8831 103.042 23.7955 102.834 23.6204C102.626 23.4452 102.522 23.1972 102.522 22.8771V16.3614C102.522 15.5211 102.319 14.8807 101.911 14.4402C101.504 13.9998 100.94 13.7796 100.219 13.7796C99.4816 13.7796 98.8902 14.0158 98.4447 14.4883C97.9993 14.9608 97.7765 15.6211 97.7765 16.4695V22.8771C97.7765 23.1972 97.6726 23.4452 97.4648 23.6204C97.257 23.7955 96.9773 23.8831 96.6259 23.8831H96.2178Z" fill="currentcolor"></path></svg>
